<svg width="18" height="18" viewBox="0 0 18 18" fill="none" xmlns="http://www.w3.org/2000/svg">
<g id="telegram (3) 1" clip-path="url(#clip0_2761_245)">
<path id="Vector" d="M9 18C13.9706 18 18 13.9706 18 9C18 4.02944 13.9706 0 9 0C4.02944 0 0 4.02944 0 9C0 13.9706 4.02944 18 9 18Z" fill="#8782A2"/>
<path id="Vector_2" d="M4.11771 8.80503L12.7952 5.45928C13.198 5.31378 13.5497 5.55753 13.4192 6.16653L13.42 6.16578L11.9425 13.1265C11.833 13.62 11.5397 13.74 11.1295 13.5075L8.87946 11.8493L7.79421 12.8948C7.67421 13.0148 7.57296 13.116 7.34046 13.116L7.50021 10.8263L11.6702 7.05903C11.8517 6.89928 11.6297 6.80928 11.3905 6.96828L6.23721 10.2128L4.01571 9.51978C3.53346 9.36678 3.52296 9.03753 4.11771 8.80503Z" fill="white"/>
</g>
<defs>
<clipPath id="clip0_2761_245">
<rect width="18" height="18" fill="white"/>
</clipPath>
</defs>
</svg>
