<svg width="18" height="18" viewBox="0 0 18 18" fill="none" xmlns="http://www.w3.org/2000/svg">
<g id="whatsapp (1) 1" clip-path="url(#clip0_2761_248)">
<path id="Vector" d="M9.00225 0H8.99775C4.03538 0 0 4.0365 0 9C0 10.9688 0.6345 12.7935 1.71337 14.2751L0.59175 17.6186L4.05113 16.5128C5.47425 17.4555 7.17188 18 9.00225 18C13.9646 18 18 13.9624 18 9C18 4.03763 13.9646 0 9.00225 0Z" fill="#8782A2"/>
<path id="Vector_2" d="M14.2386 12.7091C14.0215 13.3223 13.1598 13.8308 12.4724 13.9793C12.0021 14.0794 11.3879 14.1593 9.32013 13.302C6.67526 12.2063 4.97201 9.51864 4.83926 9.34427C4.71213 9.16989 3.77051 7.92114 3.77051 6.62964C3.77051 5.33814 4.42638 4.70927 4.69076 4.43927C4.90788 4.21764 5.26676 4.11639 5.61101 4.11639C5.72238 4.11639 5.82251 4.12202 5.91251 4.12652C6.17688 4.13777 6.30963 4.15352 6.48401 4.57089C6.70113 5.09402 7.22988 6.38552 7.29288 6.51827C7.35701 6.65102 7.42113 6.83102 7.33113 7.00539C7.24676 7.18539 7.17251 7.26527 7.03976 7.41827C6.90701 7.57127 6.78101 7.68827 6.64826 7.85252C6.52676 7.99539 6.38951 8.14839 6.54251 8.41277C6.69551 8.67152 7.22426 9.53439 8.00276 10.2274C9.00738 11.1218 9.82188 11.4075 10.1133 11.529C10.3304 11.619 10.5891 11.5976 10.7478 11.4289C10.9491 11.2118 11.1978 10.8518 11.4509 10.4974C11.6309 10.2431 11.8581 10.2116 12.0966 10.3016C12.3396 10.386 13.6255 11.0216 13.8899 11.1533C14.1543 11.286 14.3286 11.349 14.3928 11.4604C14.4558 11.5718 14.4558 12.0949 14.2386 12.7091Z" fill="#FAFAFA"/>
</g>
<defs>
<clipPath id="clip0_2761_248">
<rect width="18" height="18" fill="white"/>
</clipPath>
</defs>
</svg>
