<svg width="35" height="35" viewBox="0 0 35 35" fill="none" xmlns="http://www.w3.org/2000/svg">
<g id="whatsapp (1) 2" clip-path="url(#clip0_2761_235)">
<path id="Vector" d="M17.5044 0H17.4956C7.84656 0 0 7.84875 0 17.5C0 21.3281 1.23375 24.8762 3.33156 27.7572L1.15062 34.2584L7.87719 32.1081C10.6444 33.9412 13.9453 35 17.5044 35C27.1534 35 35 27.1491 35 17.5C35 7.85094 27.1534 0 17.5044 0Z" fill="white"/>
<path id="Vector_2" d="M27.6867 24.712C27.2645 25.9042 25.5889 26.893 24.2523 27.1817C23.338 27.3764 22.1436 27.5317 18.123 25.8648C12.9802 23.7342 9.66828 18.5083 9.41016 18.1692C9.16297 17.8302 7.33203 15.402 7.33203 12.8908C7.33203 10.3795 8.60734 9.15672 9.12141 8.63172C9.54359 8.20078 10.2414 8.00391 10.9108 8.00391C11.1273 8.00391 11.322 8.01484 11.497 8.02359C12.0111 8.04547 12.2692 8.07609 12.6083 8.88766C13.0305 9.90484 14.0586 12.4161 14.1811 12.6742C14.3058 12.9323 14.4305 13.2823 14.2555 13.6214C14.0914 13.9714 13.947 14.1267 13.6889 14.4242C13.4308 14.7217 13.1858 14.9492 12.9277 15.2686C12.6914 15.5464 12.4245 15.8439 12.722 16.358C13.0195 16.8611 14.0477 18.5389 15.5614 19.8864C17.5148 21.6255 19.0986 22.1811 19.6652 22.4173C20.0873 22.5923 20.5905 22.5508 20.8989 22.2227C21.2905 21.8005 21.7739 21.1005 22.2661 20.4114C22.6161 19.917 23.058 19.8558 23.5217 20.0308C23.9942 20.1948 26.4945 21.4308 27.0086 21.6867C27.5227 21.9448 27.8617 22.0673 27.9864 22.2839C28.1089 22.5005 28.1089 23.5176 27.6867 24.712Z" fill="#5E4CB3"/>
</g>
<defs>
<clipPath id="clip0_2761_235">
<rect width="35" height="35" fill="white"/>
</clipPath>
</defs>
</svg>
